<svg id="cross" aria-labelledby="t-cross d-cross" viewBox="0 0 32 32" xmlns="http://www.w3.org/2000/svg">
<!--
  Puxl icons 1.0 - https://puxl.io/puxl-icons
  Created by @MrKanuel, brought by The Puxl Clan with love from Basque Country
  Puxl icons is licensed under the GPL V3 - Copyright (c) 2018 Puxl
  https://github.com/puxl/puxl-icons/blob/master/LICENSE
-->
  <title id="t-cross">Cross</title>
  <desc id="d-cross">Two lines crossed diagonally</desc>
  <path d="M28.586,0.586L16,13.172L3.414,0.586c-0.781-0.781-2.047-0.781-2.828,0c-0.781,0.781-0.781,2.047,0,2.828L13.171,16L0.586,28.586c-0.781,0.781-0.781,2.047,0,2.828c0.781,0.781,2.047,0.781,2.828,0L16,18.828l12.586,12.586c0.781,0.781,2.047,0.781,2.828,0s0.781-2.047,0-2.828L18.828,16L31.414,3.414c0.781-0.781,0.781-2.047,0-2.828C30.633-0.195,29.366-0.195,28.586,0.586z"/>
</svg>
