<svg id="lens" aria-labelledby="t-lens d-lens" viewBox="0 0 32 32" xmlns="http://www.w3.org/2000/svg">
<!--
  Puxl icons 1.0 - https://puxl.io/puxl-icons
  Created by @MrKanuel, brought by The Puxl Clan with love from Basque Country
  Puxl icons is licensed under the GPL V3 - Copyright (c) 2018 Puxl
  https://github.com/puxl/puxl-icons/blob/master/LICENSE
-->
  <title id="t-lens">Lens</title>
  <desc id="d-lens">Magnifying glass</desc>
  <path d="M31.122,26.88l-5.979-5.981c-0.922-0.92-2.291-1.104-3.406-0.565l-2.275-2.287c3.604-4.321,3.387-10.756-0.684-14.812c-4.292-4.296-11.25-4.296-15.543,0s-4.296,11.261,0,15.543c4.057,4.062,10.491,4.277,14.813,0.685l2.287,2.287c-0.523,1.104-0.354,2.479,0.564,3.396l5.98,5.979c1.17,1.17,3.073,1.17,4.243,0C32.294,29.95,32.291,28.05,31.122,26.88z M17.363,17.363c-3.513,3.513-9.212,3.515-12.727,0c-3.515-3.515-3.515-9.214,0-12.729c3.515-3.514,9.213-3.514,12.727,0C20.879,8.15,20.879,13.849,17.363,17.363z M30.414,30.415c-0.78,0.778-2.048,0.778-2.828,0l-5.98-5.979c-0.771-0.771-0.771-2.05,0-2.83c0.781-0.771,2.049-0.771,2.83,0l5.979,5.981C31.193,28.366,31.195,29.634,30.414,30.415z"/>
</svg>
