<svg id="ik_heart" viewBox="0 0 512 512" xmlns="http://www.w3.org/2000/svg">
  <polygon fill="#F89B1D" points="319.995,477.706 383.997,366.856 255.997,366.856"/>
  <polygon fill="#FCB525" points="255.997,366.856 191.995,477.706 319.995,477.706"/>
  <polygon fill="#F37F21" points="191.995,477.706 255.997,366.856 127.995,366.856"/>
  <polygon fill="#A3459A" points="383.999,366.852 447.999,256.002 319.999,256.002"/>
  <polygon fill="#DCBB26" points="319.999,256.002 255.997,366.852 383.999,366.852"/>
  <polygon fill="#FCEB01" points="255.997,366.852 319.999,256.002 192,256.002"/>
  <polygon fill="#CDA82C" points="192,256.002 127.998,366.852 255.997,366.852"/>
  <polygon fill="#BEAFD6" points="127.998,366.852 192,256.002 63.998,256.002"/>
  <polygon fill="#00B2D9" points="447.999,255.999 511.998,145.149 383.999,145.149"/>
  <polygon fill="#C375B0" points="383.999,145.149 319.997,255.999 447.999,255.999"/>
  <polygon fill="#A3459A" points="319.997,255.999 383.999,145.149 255.999,145.149"/>
  <polygon fill="#C375B0" points="255.999,145.149 191.997,255.999 319.997,255.999"/>
  <polygon fill="#7662AB" points="191.997,255.999 255.999,145.149 127.998,145.149"/>
  <polygon fill="#8A78B7" points="127.998,145.149 64,255.999 191.997,255.999"/>
  <polygon fill="#A1CF67" points="64,255.999 127.998,145.149 0,145.149"/>
  <polygon fill="#3AC3E9" points="448,34.295 384,145.145 512,145.145"/>
  <polygon fill="#00ADD0" points="384,145.145 448,34.295 320,34.295"/>
  <polygon fill="#3AC3E9" points="320,34.295 255.999,145.145 384,145.145"/>
  <polygon fill="#1BA94A" points="192.001,34.295 128,145.145 255.999,145.145"/>
  <polygon fill="#A1CF67" points="128,145.145 192.001,34.295 64,34.295"/>
  <polygon fill="#65BD51" points="64,34.295 0.002,145.145 128,145.145"/>
</svg>
